{
  "accessors": [
    {
      "bufferView": 2,
      "componentType": 5126,
      "count": 40537,
      "max": [
        5.726017951965332,
        10.076188087463379,
        16.359102249145508
      ],
      "min": [
        -6.3016600608825684,
        -41.831195831298828,
        -15.933868408203125
      ],
      "type": "VEC3"
    },
    {
      "bufferView": 2,
      "byteOffset": 486444,
      "componentType": 5126,
      "count": 40537,
      "max": [
        0.99999916553497314,
        0.99996042251586914,
        0.99996739625930786
      ],
      "min": [
        -0.99998182058334351,
        -0.99981003999710083,
        -0.99986213445663452
      ],
      "type": "VEC3"
    },
    {
      "bufferView": 3,
      "componentType": 5126,
      "count": 40537,
      "max": [
        0.99999994039535522,
        0.99999982118606567,
        0.99967753887176514,
        1
      ],
      "min": [
        -1,
        -0.9999997615814209,
        -0.99895173311233521,
        -1
      ],
      "type": "VEC4"
    },
    {
      "bufferView": 1,
      "componentType": 5126,
      "count": 40537,
      "max": [
        0.99962198734283447,
        0.93041998147964478
      ],
      "min": [
        0.00024399999529123306,
        0.00078499998198822141
      ],
      "type": "VEC2"
    },
    {
      "bufferView": 0,
      "componentType": 5125,
      "count": 149988,
      "max": [
        40536
      ],
      "min": [
        0
      ],
      "type": "SCALAR"
    }
  ],
  "asset": {
    "generator": "Sketchfab (OSG glTF plugin)",
    "version": "2.0"
  },
  "bufferViews": [
    {
      "buffer": 0,
      "byteLength": 599952,
      "byteOffset": 0,
      "name": "floatBufferViews",
      "target": 34963
    },
    {
      "buffer": 0,
      "byteLength": 324296,
      "byteOffset": 599952,
      "byteStride": 8,
      "name": "floatBufferViews",
      "target": 34962
    },
    {
      "buffer": 0,
      "byteLength": 972888,
      "byteOffset": 924248,
      "byteStride": 12,
      "name": "floatBufferViews",
      "target": 34962
    },
    {
      "buffer": 0,
      "byteLength": 648592,
      "byteOffset": 1897136,
      "byteStride": 16,
      "name": "floatBufferViews",
      "target": 34962
    }
  ],
  "buffers": [
    {
      "byteLength": 2545728,
      "uri": "scene.bin"
    }
  ],
  "images": [
    {
      "uri": "textures/new-tex_Material_u1_v1_baseColor.png"
    },
    {
      "uri": "textures/new-tex_Material_u1_v1_metallicRoughness.png"
    },
    {
      "uri": "textures/new-tex_Material_u1_v1_normal.jpg"
    }
  ],
  "materials": [
    {
      "alphaCutoff": 0.5,
      "alphaMode": "BLEND",
      "doubleSided": true,
      "name": "new-tex_Material_u1_v1",
      "normalTexture": {
        "index": 2,
        "scale": 1,
        "texCoord": 0
      },
      "occlusionTexture": {
        "index": 1,
        "strength": 1,
        "texCoord": 0
      },
      "pbrMetallicRoughness": {
        "baseColorFactor": [
          1,
          1,
          1,
          1
        ],
        "baseColorTexture": {
          "index": 0,
          "texCoord": 0
        },
        "metallicFactor": 0.5,
        "metallicRoughnessTexture": {
          "index": 1,
          "texCoord": 0
        },
        "roughnessFactor": 1
      }
    }
  ],
  "meshes": [
    {
      "primitives": [
        {
          "attributes": {
            "NORMAL": 1,
            "POSITION": 0,
            "TANGENT": 2,
            "TEXCOORD_0": 3
          },
          "indices": 4,
          "material": 0,
          "mode": 4
        }
      ]
    }
  ],
  "nodes": [
    {
      "children": [
        1
      ],
      "name": "RootNode (gltf orientation matrix)",
      "rotation": [
        -0.70710678118654746,
        -0,
        -0,
        0.70710678118654757
      ]
    },
    {
      "children": [
        2
      ],
      "matrix": [
        -0.078735768795013428,
        -0.84291660785675049,
        -0.53225213289260864,
        0,
        0.98433595895767212,
        -0.15021923184394836,
        0.092286787927150726,
        0,
        -0.15774457156658173,
        -0.51664865016937256,
        0.84154075384140015,
        0,
        15.351791381835938,
        -18.395317077636719,
        1.3457717895507812,
        1
      ],
      "name": "RootNode (model correction matrix)"
    },
    {
      "children": [
        4
      ],
      "name": "cicada-rigsters.obj.cleaner.materialmerger.gles"
    },
    {
      "mesh": 0,
      "name": ""
    },
    {
      "children": [
        3
      ],
      "name": "Geode"
    }
  ],
  "samplers": [
    {
      "magFilter": 9729,
      "minFilter": 9987,
      "wrapS": 10497,
      "wrapT": 10497
    }
  ],
  "scene": 0,
  "scenes": [
    {
      "name": "OSG_Scene",
      "nodes": [
        0
      ]
    }
  ],
  "textures": [
    {
      "sampler": 0,
      "source": 0
    },
    {
      "sampler": 0,
      "source": 1
    },
    {
      "sampler": 0,
      "source": 2
    }
  ]
}

